<svg width="20" height="21" viewBox="0 0 20 21" xmlns="http://www.w3.org/2000/svg">
<path d="M17.5749 6.31823C16.8665 5.5349 15.6832 5.14323 13.9665 5.14323H13.7665V5.1099C13.7665 3.7099 13.7665 1.97656 10.6332 1.97656H9.36653C6.2332 1.97656 6.2332 3.71823 6.2332 5.1099V5.15156H6.0332C4.3082 5.15156 3.1332 5.54323 2.42487 6.32656C1.59987 7.24323 1.62487 8.47656 1.7082 9.31823L1.71654 9.37656L1.77732 10.0148C1.79159 10.1646 1.87234 10.3 1.99834 10.3822C2.20039 10.5141 2.51013 10.7128 2.69987 10.8182C2.81654 10.8932 2.94154 10.9599 3.06654 11.0266C4.49154 11.8099 6.0582 12.3349 7.64987 12.5932C7.72487 13.3766 8.06653 14.2932 9.89153 14.2932C11.7165 14.2932 12.0749 13.3849 12.1332 12.5766C13.8332 12.3016 15.4749 11.7099 16.9582 10.8432C17.0082 10.8182 17.0415 10.7932 17.0832 10.7682C17.4034 10.5872 17.7352 10.3656 18.0398 10.1469C18.153 10.0656 18.2253 9.93948 18.2407 9.80097L18.2499 9.71823L18.2915 9.32656C18.2999 9.27656 18.2999 9.2349 18.3082 9.17656C18.3749 8.3349 18.3582 7.1849 17.5749 6.31823ZM10.9082 12.0266C10.9082 12.9099 10.9082 13.0432 9.8832 13.0432C8.8582 13.0432 8.8582 12.8849 8.8582 12.0349V10.9849H10.9082V12.0266ZM7.42487 5.14323V5.1099C7.42487 3.69323 7.42487 3.16823 9.36653 3.16823H10.6332C12.5749 3.16823 12.5749 3.70156 12.5749 5.1099V5.15156H7.42487V5.14323Z"/>
<path d="M17.2599 12.011C17.614 11.8437 18.0212 12.1242 17.9858 12.5142L17.7002 15.6602C17.5252 17.3269 16.8419 19.0269 13.1752 19.0269H6.82519C3.15853 19.0269 2.4752 17.3269 2.3002 15.6686L2.02948 12.6907C1.99444 12.3053 2.39276 12.0252 2.7458 12.1839C3.705 12.615 5.317 13.3083 6.35299 13.5873C6.51699 13.6315 6.65014 13.7495 6.72454 13.9022C7.23875 14.9575 8.32794 15.5186 9.89186 15.5186C11.4404 15.5186 12.5429 14.9359 13.059 13.8774C13.1335 13.7246 13.2666 13.6067 13.4307 13.5622C14.5325 13.2638 16.2538 12.4865 17.2599 12.011Z"/>
</svg>
